<?xml version="1.0" encoding="UTF-8"?>
<svg width="1200pt" height="1200pt" version="1.1" viewBox="0 0 1200 1200" xmlns="http://www.w3.org/2000/svg">
 <g>
  <path d="m416.06 1117.7c-4.9727 0-9.7422-1.9766-13.258-5.4922-3.5156-3.5156-5.4922-8.2852-5.4922-13.258 0.023438-18.949 7.5547-37.113 20.945-50.52 13.391-13.406 31.543-20.961 50.492-21.012h56.25v-17.812c-0.042969-19.602 7.8711-38.379 21.938-52.031 3.5547-3.4805 8.3477-5.4062 13.324-5.3555 4.9766 0.054688 9.7266 2.082 13.207 5.6367s5.4062 8.3477 5.3555 13.324c-0.054688 4.9766-2.082 9.7266-5.6367 13.207-6.8359 6.6094-10.691 15.711-10.688 25.219v36.562c0 4.9727-1.9766 9.7422-5.4922 13.258-3.5156 3.5156-8.2852 5.4922-13.258 5.4922h-75c-9.0273 0-17.68 3.5859-24.062 9.9688s-9.9688 15.035-9.9688 24.062c0 4.957-1.9609 9.7109-5.457 13.227-3.4961 3.5117-8.2422 5.5-13.199 5.5234z"/>
  <path d="m784.03 1117.7c-4.9727 0-9.7422-1.9766-13.258-5.4922-3.5156-3.5156-5.4922-8.2852-5.4922-13.258 0-9.0273-3.5859-17.68-9.9688-24.062s-15.035-9.9688-24.062-9.9688h-78.844c-4.9727 0-9.7422-1.9766-13.258-5.4922-3.5156-3.5156-5.4922-8.2852-5.4922-13.258v-36.562c0.015625-8.8945-3.332-17.469-9.375-24-4.3008-4.9453-5.7109-11.777-3.7109-18.02 1.9961-6.2461 7.1094-10.992 13.484-12.52 6.375-1.5273 13.082 0.38281 17.695 5.0391 12.531 13.438 19.5 31.125 19.5 49.5v17.812h60c18.965 0.023438 37.145 7.5703 50.555 20.977 13.406 13.41 20.953 31.59 20.977 50.555 0 4.9727-1.9766 9.7422-5.4922 13.258-3.5156 3.5156-8.2852 5.4922-13.258 5.4922z"/>
  <path d="m569.25 916.5c-4.9727 0-9.7422-1.9766-13.258-5.4922-3.5156-3.5156-5.4922-8.2852-5.4922-13.258v-565.59c0-6.6992 3.5742-12.887 9.375-16.238 5.8008-3.3477 12.949-3.3477 18.75 0 5.8008 3.3516 9.375 9.5391 9.375 16.238v565.59c0 4.9727-1.9766 9.7422-5.4922 13.258-3.5156 3.5156-8.2852 5.4922-13.258 5.4922z"/>
  <path d="m627.19 916.5c-4.9727 0-9.7422-1.9766-13.258-5.4922-3.5156-3.5156-5.4922-8.2852-5.4922-13.258v-565.59c0-6.6992 3.5742-12.887 9.375-16.238 5.8008-3.3477 12.949-3.3477 18.75 0 5.8008 3.3516 9.375 9.5391 9.375 16.238v565.59c0 4.9727-1.9766 9.7422-5.4922 13.258-3.5156 3.5156-8.2852 5.4922-13.258 5.4922z"/>
  <path d="m598.22 350.81c-22.551 0-44.18-8.957-60.125-24.906-15.949-15.945-24.906-37.574-24.906-60.125s8.957-44.18 24.906-60.125c15.945-15.949 37.574-24.906 60.125-24.906s44.18 8.957 60.125 24.906c15.949 15.945 24.906 37.574 24.906 60.125-0.023438 22.543-8.9922 44.156-24.934 60.098s-37.555 24.91-60.098 24.934zm0-132.56c-12.605 0-24.695 5.0078-33.609 13.922s-13.922 21.004-13.922 33.609 5.0078 24.695 13.922 33.609 21.004 13.922 33.609 13.922 24.695-5.0078 33.609-13.922 13.922-21.004 13.922-33.609c-0.023438-12.598-5.0391-24.676-13.949-33.582-8.9062-8.9102-20.984-13.926-33.582-13.949z"/>
  <path d="m565.03 214.12c-6.168 0.09375-11.984-2.8516-15.562-7.875-8.0039-11.844-11.418-26.203-9.6016-40.383 1.8164-14.18 8.7383-27.211 19.469-36.656 10.734-9.4453 24.539-14.656 38.836-14.656s28.102 5.2109 38.836 14.656c10.73 9.4453 17.652 22.477 19.469 36.656 1.8164 14.18-1.5977 28.539-9.6016 40.383-3.75 5.5586-10.184 8.6953-16.875 8.2266s-12.621-4.4688-15.562-10.5c-2.9375-6.0273-2.4375-13.168 1.3125-18.727 2.8789-4.293 4.0977-9.4844 3.4297-14.609-0.66797-5.1211-3.1758-9.8281-7.0586-13.238-3.8828-3.4102-8.875-5.2891-14.043-5.2891s-10.16 1.8789-14.043 5.2891c-3.8828 3.4102-6.3906 8.1172-7.0586 13.238-0.66797 5.125 0.55078 10.316 3.4297 14.609 2.5547 3.7812 3.6445 8.3633 3.0625 12.891s-2.793 8.6836-6.2227 11.695c-3.4297 3.0117-7.8398 4.6719-12.402 4.6641z"/>
  <path d="m598.22 151.69c-15.598-0.023438-30.551-6.2383-41.57-17.277-11.02-11.039-17.211-26-17.211-41.598 0-26.625 34.875-72.375 45.469-85.781 3.6016-4.6445 9.2227-7.2617 15.094-7.0312 5.8203 0.10938 11.258 2.9141 14.719 7.5938 9.9375 13.406 42.375 58.969 42.375 85.312-0.023438 15.598-6.2383 30.551-17.277 41.57-11.039 11.02-26 17.211-41.598 17.211zm0.84375-100.69c-12.656 18.75-22.031 35.625-22.125 41.812 0 7.6016 4.0547 14.629 10.641 18.43 6.5859 3.8008 14.695 3.8008 21.281 0 6.5859-3.8008 10.641-10.828 10.641-18.43 0-6-8.625-23.344-20.438-41.812z"/>
  <path d="m868.12 1200h-540c-4.9727 0-9.7422-1.9766-13.258-5.4922-3.5156-3.5156-5.4922-8.2852-5.4922-13.258 0.023438-24.16 9.6328-47.324 26.719-64.406 17.082-17.086 40.246-26.695 64.406-26.719h51c6.6992 0 12.887 3.5742 16.238 9.375 3.3477 5.8008 3.3477 12.949 0 18.75-3.3516 5.8008-9.5391 9.375-16.238 9.375h-50.719c-10.93 0.011719-21.594 3.3555-30.574 9.5859-8.9766 6.2344-15.844 15.055-19.676 25.289h495.47c-3.832-10.234-10.699-19.055-19.676-25.289-8.9805-6.2305-19.645-9.5742-30.574-9.5859h-247.88c-6.6992 0-12.887-3.5742-16.238-9.375-3.3477-5.8008-3.3477-12.949 0-18.75 3.3516-5.8008 9.5391-9.375 16.238-9.375h247.88c24.16 0.023438 47.324 9.6328 64.406 26.719 17.086 17.082 26.695 40.246 26.719 64.406 0 4.9727-1.9766 9.7422-5.4922 13.258-3.5156 3.5156-8.2852 5.4922-13.258 5.4922z"/>
  <path d="m598.22 1001.1c-16.699-0.023438-32.711-6.6719-44.52-18.48-11.809-11.809-18.453-27.82-18.48-44.52-0.023438-16.703 6.5742-32.73 18.352-44.574 11.773-11.844 27.762-18.539 44.465-18.613 16.699-0.074219 32.746 6.4766 44.629 18.215 11.879 11.738 18.617 27.711 18.742 44.41 0.10156 16.824-6.5117 32.992-18.375 44.922-11.859 11.934-27.988 18.641-44.812 18.641zm0-88.688c-6.8086 0.027344-13.328 2.7656-18.113 7.6094-4.7852 4.8438-7.4414 11.398-7.3828 18.207s2.832 13.312 7.6992 18.074 11.43 7.3867 18.238 7.293c6.8086-0.089844 13.301-2.8906 18.039-7.7812s7.332-11.469 7.207-18.277c-0.12109-6.7305-2.8828-13.145-7.6875-17.863-4.8047-4.7148-11.27-7.3555-18-7.3555z"/>
  <path d="m218.34 336.47c-4.4609 0.011719-8.918-0.36328-13.312-1.125-17.301-3.0273-33.297-11.176-45.918-23.395-12.617-12.219-21.277-27.941-24.863-45.137-1.1133-6.4336 1.2031-12.984 6.1094-17.289 4.9102-4.3086 11.703-5.75 17.938-3.8086 6.2383 1.9414 11.012 6.9844 12.609 13.316 2.0508 9.8867 7.0273 18.93 14.285 25.949 7.2539 7.0234 16.453 11.699 26.402 13.426 13.777 1.5781 27.691-1.4531 39.562-8.625 75-45.75 165.75-67.125 268.59-63.469 4.9727 0.17188 9.6758 2.3125 13.07 5.9531 3.3945 3.6406 5.1992 8.4805 5.0234 13.453-0.17188 4.9727-2.3125 9.6758-5.9531 13.07-3.6406 3.3945-8.4805 5.1992-13.453 5.0234-95.344-3.2812-178.78 16.125-247.88 58.031-15.816 9.3867-33.828 14.434-52.219 14.625z"/>
  <path d="m979.97 471.47c-5.2188-0.011719-10.426-0.48438-15.562-1.4062-22.441-4.9023-42.523-17.344-56.906-35.25-54.375-68.531-134.53-118.03-237-147.09-6.4492-1.8242-11.43-6.9531-13.074-13.449-1.6445-6.4961 0.30469-13.375 5.1094-18.047 4.8047-4.6719 11.734-6.4219 18.184-4.5977 110.06 31.219 196.22 85.031 256.03 159.38 8.6914 10.828 20.723 18.477 34.219 21.75 9.9336 1.8008 20.18 0.57422 29.41-3.5195 9.2266-4.0977 17.012-10.871 22.34-19.449 2.5625-4.3711 6.7812-7.5234 11.703-8.7305 4.9219-1.2109 10.121-0.37891 14.418 2.3086s7.3203 7 8.3867 11.953c1.0664 4.9531 0.082032 10.129-2.7266 14.344-15.906 25.926-44.117 41.75-74.531 41.812z"/>
  <path d="m212.81 908.34c-90 0-172.5-39.938-210.09-102.09-3.332-5.7695-3.3516-12.875-0.050781-18.66 3.2969-5.7891 9.4219-9.3906 16.082-9.4648h388.22c6.6602 0.074219 12.785 3.6758 16.082 9.4648 3.3008 5.7852 3.2812 12.891-0.050781 18.66-37.594 62.156-120.09 102.09-210.19 102.09zm-154.78-92.719c36.188 34.312 93.188 55.312 154.88 55.312s118.59-21 154.78-55.312z"/>
  <path d="m367.12 750c-3.6328 0.003906-7.1875-1.0508-10.234-3.0312s-5.4492-4.8047-6.9219-8.125l-137.16-308.16-137.16 308.16c-1.9062 4.7188-5.6523 8.4609-10.371 10.363-4.7188 1.9023-10.012 1.8047-14.656-0.26953-4.6484-2.0742-8.2539-5.9492-9.9844-10.734-1.7344-4.7852-1.4492-10.07 0.79297-14.641l154.31-346.88c1.9844-4.4258 5.6016-7.9062 10.102-9.7188 4.4961-1.8125 9.5195-1.8125 14.016 0 4.5 1.8125 8.1172 5.293 10.102 9.7188l154.41 346.97c2.5781 5.8164 2.0273 12.543-1.457 17.867-3.4844 5.3203-9.4297 8.5117-15.793 8.4766z"/>
  <path d="m987.19 1039.6c-90 0-172.5-39.938-210.09-101.81-3.332-5.7695-3.3516-12.875-0.050781-18.66 3.2969-5.7891 9.4219-9.3906 16.082-9.4648h388.12c6.6602 0.074219 12.785 3.6758 16.082 9.4648 3.3008 5.7852 3.2812 12.891-0.050781 18.66-37.594 61.781-120.09 101.81-210.09 101.81zm-154.88-92.719c36.188 34.312 93.188 55.312 154.88 55.312s118.59-21 154.88-55.312z"/>
  <path d="m1141.4 881.25c-3.6328 0.003906-7.1875-1.0508-10.234-3.0312s-5.4492-4.8047-6.9219-8.125l-137.06-308.25-137.16 308.16c-2.7148 6.1445-8.5 10.379-15.18 11.102-6.6758 0.72266-13.234-2.1719-17.203-7.5938-3.9648-5.4219-4.7383-12.551-2.0234-18.695l154.31-346.88c1.9844-4.4258 5.6016-7.9062 10.102-9.7188 4.4961-1.8125 9.5195-1.8125 14.016 0 4.5 1.8125 8.1172 5.293 10.102 9.7188l154.31 346.88c2.6055 5.7969 2.0977 12.516-1.3477 17.855-3.4453 5.3398-9.3594 8.5703-15.715 8.582z"/>
 </g>
</svg>
